<svg width="164" height="164" viewBox="0 0 164 164" fill="none" xmlns="http://www.w3.org/2000/svg">
<path d="M35.875 15.375L57.7382 68.47C44.6387 76.6085 35.875 91.0918 35.875 107.625C35.875 133.055 56.5646 153.75 82 153.75C107.435 153.75 128.125 133.055 128.125 107.625C128.125 91.0969 119.361 76.6136 106.262 68.47L128.125 15.375H117.045L96.9958 64.0522C93.5797 62.8673 90.0362 62.088 86.4382 61.7306L105.508 15.375H94.4281L75.1991 62.0637C72.4108 62.4747 69.666 63.1403 66.9991 64.0522L46.9552 15.375H35.875ZM58.4865 15.375L71.5091 47.0167L77.0544 33.5534L69.5719 15.375H58.4865ZM82 71.75C101.777 71.75 117.875 87.8425 117.875 107.625C117.875 127.408 101.777 143.5 82 143.5C62.2226 143.5 46.125 127.408 46.125 107.625C46.125 87.8425 62.2226 71.75 82 71.75ZM82 87.9553L76.014 101.383L61.5 102.971L72.365 112.729L69.3054 127.131L82 119.812L94.6946 127.141L91.6401 112.74L102.5 102.966L87.986 101.378L82 87.9553Z" fill="white"/>
</svg>
