<svg width="55" height="55" viewBox="0 0 55 55" fill="none" xmlns="http://www.w3.org/2000/svg">
<path d="M27.5023 20.625C25.6789 20.625 23.9302 21.3493 22.6409 22.6386C21.3516 23.928 20.6273 25.6766 20.6273 27.5C20.6273 29.3234 21.3516 31.072 22.6409 32.3614C23.9302 33.6507 25.6789 34.375 27.5023 34.375C29.3256 34.375 31.0743 33.6507 32.3636 32.3614C33.6529 31.072 34.3773 29.3234 34.3773 27.5C34.3773 25.6766 33.6529 23.928 32.3636 22.6386C31.0743 21.3493 29.3256 20.625 27.5023 20.625ZM27.5023 16.0417C30.5412 16.0417 33.4557 17.2489 35.6045 19.3977C37.7534 21.5466 38.9606 24.4611 38.9606 27.5C38.9606 30.5389 37.7534 33.4534 35.6045 35.6023C33.4557 37.7511 30.5412 38.9583 27.5023 38.9583C24.4633 38.9583 21.5489 37.7511 19.4 35.6023C17.2512 33.4534 16.0439 30.5389 16.0439 27.5C16.0439 24.4611 17.2512 21.5466 19.4 19.3977C21.5489 17.2489 24.4633 16.0417 27.5023 16.0417ZM42.3981 15.4688C42.3981 16.2285 42.0963 16.9571 41.5591 17.4943C41.0219 18.0315 40.2933 18.3333 39.5335 18.3333C38.7738 18.3333 38.0452 18.0315 37.508 17.4943C36.9707 16.9571 36.6689 16.2285 36.6689 15.4688C36.6689 14.709 36.9707 13.9804 37.508 13.4432C38.0452 12.906 38.7738 12.6042 39.5335 12.6042C40.2933 12.6042 41.0219 12.906 41.5591 13.4432C42.0963 13.9804 42.3981 14.709 42.3981 15.4688ZM27.5023 9.16667C21.8327 9.16667 20.9069 9.18271 18.2691 9.29958C16.4725 9.38438 15.2671 9.625 14.1487 10.0604C13.2133 10.405 12.3675 10.9556 11.6737 11.6715C10.9571 12.365 10.4057 13.2109 10.0604 14.1465C9.62498 15.2694 9.38435 16.4725 9.30185 18.2669C9.18269 20.7969 9.16665 21.6815 9.16665 27.5C9.16665 33.1719 9.18269 34.0954 9.29956 36.7331C9.38435 38.5275 9.62498 39.7352 10.0581 40.8512C10.4477 41.8481 10.906 42.5654 11.6669 43.3263C12.4391 44.0962 13.1564 44.5569 14.1419 44.9373C15.2739 45.375 16.4794 45.6179 18.2669 45.7004C20.7969 45.8196 21.6814 45.8333 27.5 45.8333C33.1719 45.8333 34.0954 45.8173 36.7331 45.7004C38.5252 45.6156 39.7306 45.375 40.8512 44.9419C41.7866 44.5973 42.6325 44.0467 43.3262 43.3308C44.0985 42.5608 44.5591 41.8435 44.9396 40.8558C45.375 39.7283 45.6179 38.5229 45.7004 36.7308C45.8196 34.2031 45.8333 33.3162 45.8333 27.5C45.8333 21.8304 45.8173 20.9046 45.7004 18.2669C45.6156 16.4748 45.3727 15.2648 44.9396 14.1465C44.595 13.2111 44.0444 12.3652 43.3285 11.6715C42.635 10.9548 41.7891 10.4034 40.8535 10.0581C39.7306 9.62271 38.5252 9.38208 36.7331 9.29958C34.2054 9.18042 33.3208 9.16667 27.5 9.16667M27.5 4.58333C33.7264 4.58333 34.5033 4.60625 36.9485 4.72083C39.3869 4.83542 41.0506 5.21813 42.5104 5.78646C44.0229 6.36854 45.2971 7.15688 46.5712 8.42875C47.737 9.57397 48.6387 10.9598 49.2135 12.4896C49.7796 13.9494 50.1646 15.6131 50.2791 18.0537C50.3869 20.4967 50.4166 21.2735 50.4166 27.5C50.4166 33.7265 50.3937 34.5033 50.2791 36.9462C50.1646 39.3892 49.7796 41.0483 49.2135 42.5104C48.6387 44.0402 47.737 45.426 46.5712 46.5712C45.426 47.737 44.0401 48.6388 42.5104 49.2135C41.0506 49.7796 39.3869 50.1646 36.9485 50.2792C34.5033 50.3869 33.7264 50.4167 27.5 50.4167C21.2735 50.4167 20.4966 50.3937 18.0514 50.2792C15.6131 50.1646 13.9516 49.7796 12.4896 49.2135C10.9598 48.6388 9.57395 47.737 8.42873 46.5712C7.26297 45.426 6.36122 44.0402 5.78644 42.5104C5.2181 41.0506 4.8354 39.3869 4.72081 36.9462C4.61081 34.5033 4.58331 33.7265 4.58331 27.5C4.58331 21.2735 4.60623 20.4967 4.72081 18.0537C4.8354 15.6108 5.2181 13.9517 5.78644 12.4896C6.36122 10.9598 7.26297 9.57397 8.42873 8.42875C9.57395 7.26299 10.9598 6.36125 12.4896 5.78646C13.9494 5.21813 15.6108 4.83542 18.0514 4.72083C20.4989 4.61313 21.2758 4.58333 27.5023 4.58333" fill="currentColor"/>
</svg>
