<svg width="63" height="63" viewBox="0 0 63 63" fill="none" xmlns="http://www.w3.org/2000/svg">
<path fill-rule="evenodd" clip-rule="evenodd" d="M19.903 39.7625C32.0353 50.952 43.2777 52.1772 46.5782 52.2907C50.5666 52.4245 54.6369 49.4213 56.3976 46.3453C53.5894 43.3071 49.9323 40.9499 45.9282 38.3948C43.5649 40.5715 40.6525 44.6166 36.7746 43.1674C34.569 42.3496 29.1229 40.0361 24.3647 35.6447C19.6064 31.2533 17.0979 26.2333 16.205 24.202C14.6336 20.6196 19.0322 17.9277 21.3955 15.7481C18.6251 11.994 16.1135 8.53382 12.8256 6.07475C9.4431 7.70443 6.16786 11.4294 6.31616 15.1573C6.43922 18.2013 7.76762 28.5701 19.903 39.7625ZM46.3447 58.108C41.801 57.9538 28.9241 56.3125 15.4382 43.8775C1.95549 31.4395 0.17904 19.5662 0.00865192 15.3726C-0.243775 8.98198 5.0635 2.77465 11.1943 0.350509C11.9326 0.0564887 12.7411 -0.0554538 13.5404 0.0256663C14.3397 0.106786 15.1025 0.378182 15.7538 0.813221C20.8275 4.22681 24.3268 9.39813 27.3338 13.449C27.9594 14.2914 28.246 15.3089 28.144 16.3256C28.042 17.3422 27.5578 18.294 26.7754 19.0161L22.4967 22.9652C23.4906 24.9877 25.5132 28.4741 28.8263 31.5297C32.1394 34.5854 35.9195 36.4508 38.1156 37.3675L42.3911 33.4213C43.1762 32.6966 44.2126 32.2496 45.319 32.1586C46.4255 32.0677 47.5313 32.3385 48.443 32.9237C52.9236 35.7873 58.1867 38.9681 62.0236 43.4991C62.5336 44.1042 62.858 44.8244 62.9629 45.5847C63.0678 46.3449 62.9493 47.1171 62.6199 47.8207C59.9789 53.5042 53.2959 58.3438 46.3447 58.108Z" fill="white"/>
</svg>
