<svg width="55" height="55" viewBox="0 0 55 55" fill="none" xmlns="http://www.w3.org/2000/svg">
<path d="M38.0417 13.3375C36.4755 11.5489 35.6123 9.25237 35.6125 6.875H28.5312V35.2917C28.4778 36.8298 27.8289 38.2871 26.7215 39.3559C25.6142 40.4248 24.1349 41.0218 22.5958 41.0208C19.3417 41.0208 16.6375 38.3625 16.6375 35.0625C16.6375 31.1208 20.4417 28.1646 24.3604 29.3792V22.1375C16.4542 21.0833 9.53333 27.225 9.53333 35.0625C9.53333 42.6938 15.8583 48.125 22.5729 48.125C29.7687 48.125 35.6125 42.2812 35.6125 35.0625V20.6479C38.4839 22.7101 41.9314 23.8165 45.4667 23.8104V16.7292C45.4667 16.7292 41.1583 16.9354 38.0417 13.3375Z" fill="currentColor"/>
</svg>
