<svg width="132" height="132" viewBox="0 0 132 132" fill="none" xmlns="http://www.w3.org/2000/svg">
<path d="M66 11C96.3765 11 121 35.6235 121 66C121 96.3765 96.3765 121 66 121C35.6235 121 11 96.3765 11 66C11 35.6235 35.6235 11 66 11ZM66 22C54.3305 22 43.1389 26.6357 34.8873 34.8873C26.6357 43.1389 22 54.3305 22 66C22 77.6695 26.6357 88.8611 34.8873 97.1127C43.1389 105.364 54.3305 110 66 110C77.6695 110 88.8611 105.364 97.1127 97.1127C105.364 88.8611 110 77.6695 110 66C110 54.3305 105.364 43.1389 97.1127 34.8873C88.8611 26.6357 77.6695 22 66 22ZM66 33C67.3471 33.0002 68.6474 33.4948 69.654 34.3899C70.6607 35.2851 71.3039 36.5186 71.4615 37.8565L71.5 38.5V63.723L86.3885 78.6115C87.3749 79.6013 87.9476 80.9294 87.9903 82.3261C88.0329 83.7228 87.5423 85.0834 86.6181 86.1315C85.6939 87.1796 84.4055 87.8367 83.0144 87.9692C81.6233 88.1017 80.234 87.6998 79.1285 86.845L78.6115 86.3885L62.1115 69.8885C61.2567 69.033 60.7077 67.9195 60.5495 66.7205L60.5 66V38.5C60.5 37.0413 61.0795 35.6424 62.1109 34.6109C63.1424 33.5795 64.5413 33 66 33Z" fill="white"/>
</svg>
